<svg width="40" height="40" viewBox="0 0 40 40" fill="none" xmlns="http://www.w3.org/2000/svg">
<path d="M9.99967 15H7.49967C6.39461 15 5.3348 14.561 4.5534 13.7796C3.77199 12.9982 3.33301 11.9384 3.33301 10.8333C3.33301 9.72822 3.77199 8.66842 4.5534 7.88701C5.3348 7.10561 6.39461 6.66663 7.49967 6.66663H9.99967" stroke="#6D28D9" stroke-width="3.33333" stroke-linecap="round" stroke-linejoin="round"/>
<path d="M30 15H32.5C33.6051 15 34.6649 14.561 35.4463 13.7796C36.2277 12.9982 36.6667 11.9384 36.6667 10.8333C36.6667 9.72822 36.2277 8.66842 35.4463 7.88701C34.6649 7.10561 33.6051 6.66663 32.5 6.66663H30" stroke="#6D28D9" stroke-width="3.33333" stroke-linecap="round" stroke-linejoin="round"/>
<path d="M6.66699 36.6666H33.3337" stroke="#6D28D9" stroke-width="3.33333" stroke-linecap="round" stroke-linejoin="round"/>
<path d="M16.667 24.4333V28.3333C16.667 29.25 15.8837 29.9667 15.0503 30.35C13.0837 31.25 11.667 33.7333 11.667 36.6667" stroke="#6D28D9" stroke-width="3.33333" stroke-linecap="round" stroke-linejoin="round"/>
<path d="M23.333 24.4333V28.3333C23.333 29.25 24.1163 29.9667 24.9497 30.35C26.9163 31.25 28.333 33.7333 28.333 36.6667" stroke="#6D28D9" stroke-width="3.33333" stroke-linecap="round" stroke-linejoin="round"/>
<path d="M30 3.33337H10V15C10 17.6522 11.0536 20.1957 12.9289 22.0711C14.8043 23.9465 17.3478 25 20 25C22.6522 25 25.1957 23.9465 27.0711 22.0711C28.9464 20.1957 30 17.6522 30 15V3.33337Z" stroke="#6D28D9" stroke-width="3.33333" stroke-linecap="round" stroke-linejoin="round"/>
</svg>
