<svg width="194" height="31" viewBox="0 0 194 31" fill="none" xmlns="http://www.w3.org/2000/svg">
<path d="M36.0338 5.79183C36.0338 4.04621 36.0338 2.67271 36 1.40747H47.1639C56.0679 1.40747 59.0517 4.21536 59.0517 13.2277V13.911C59.0517 22.9233 56.0747 25.7312 47.1301 25.7312H36C36.0338 24.3577 36.0338 22.9233 36.0338 20.9341V5.79183ZM41.203 5.92715V21.2048H47.1301C52.3737 21.2048 53.7404 19.7298 53.7404 13.7013V13.4239C53.7404 7.39537 52.3737 5.92039 47.1639 5.92039H41.203V5.92715Z" fill="#6D28D9"/>
<path d="M68.2601 0V3.63334H63.1248V0H68.2601ZM63.1586 10.5482C63.1586 8.55898 63.1586 6.9825 63.1248 5.71726H68.2601C68.2263 6.9825 68.2263 8.55898 68.2263 10.582V20.9272C68.2263 22.9164 68.2263 24.317 68.2601 25.7243H63.1248C63.1586 24.317 63.1586 22.9164 63.1586 20.961V10.5482Z" fill="#6D28D9"/>
<path d="M71.8934 19.2561L76.6905 19.1546V19.6011C76.6905 21.7256 77.516 22.3414 81.244 22.3414C84.1196 22.3414 84.8774 21.6918 84.8774 20.183C84.8774 18.9516 84.3632 18.2615 79.6337 17.5443C73.5376 16.5835 72.2317 15.3521 72.2317 11.4143C72.2317 7.06374 74.2886 5.31812 80.5877 5.31812C87.8476 5.31812 89.255 7.09757 89.255 11.7593L84.3902 11.8608V11.3804C84.3902 9.70248 83.6392 9.08677 80.4862 9.08677C77.9828 9.08677 77.1303 9.63482 77.1303 11.1775C77.1303 12.551 77.746 13.0652 81.8259 13.6471C88.7814 14.6078 89.9789 16.2181 89.9789 19.777C89.9789 24.4726 88.1318 26.1506 81.1764 26.1506C73.7405 26.1506 71.8934 24.7771 71.8934 19.2628V19.2561Z" fill="#6D28D9"/>
<path d="M92.5502 14.4251V14.1883C92.5502 6.96225 95.1212 5.31812 100.669 5.31812C104.025 5.31812 106.082 6.65102 107.212 8.95145L107.28 5.73084H112.111C112.077 6.92842 112.077 8.40341 112.077 10.149V15.4603C112.077 18.8839 112.111 20.8393 112.111 23.5457C112.111 29.0262 109.404 30.9477 101.968 30.9477C94.5326 30.9477 93.1997 29.6825 93.0644 24.5403L97.7262 24.405C97.7262 26.1844 98.308 26.8746 101.975 26.8746C106.123 26.8746 107.077 26.0153 107.111 22.6932L107.144 19.7838C106.015 22.0775 103.991 23.3089 100.703 23.3089C95.1889 23.3089 92.5502 21.6309 92.5502 14.4387V14.4251ZM107.009 14.2222V14.1207C107.009 10.6632 105.812 9.77014 102.314 9.77014C98.8155 9.77014 97.6923 10.8324 97.6923 14.1883V14.3913C97.6923 17.7472 98.8223 18.8433 102.422 18.8433C105.812 18.8433 107.009 17.7472 107.009 14.2222Z" fill="#6D28D9"/>
<path d="M116.218 19.8379C116.218 15.2844 118.132 13.3967 123.586 13.3967C126.806 13.3967 128.762 14.0124 129.892 15.3859V13.2276C129.892 10.3858 129.032 9.4589 125.677 9.4589C122.321 9.4589 121.84 10.1084 121.84 11.9962L117.145 11.8947C117.077 7.23289 119.235 5.31812 125.846 5.31812C132.97 5.31812 134.959 7.44264 134.959 12.0638C134.959 14.7702 134.926 15.7986 134.926 19.2222C134.926 21.2791 134.926 23.0247 134.959 25.7311H130.298L130.264 23.0924C129.168 25.0478 127.145 26.1438 123.518 26.1438C118.004 26.1438 116.224 24.3644 116.224 19.8447L116.218 19.8379ZM130.02 19.6688V19.0193C130.02 17.4766 129.093 16.7256 125.839 16.7256C122.104 16.7256 121.387 17.5104 121.387 19.635C121.387 21.7595 122.415 22.3752 125.67 22.3752C129.093 22.3752 130.02 21.5903 130.02 19.6688Z" fill="#6D28D9"/>
<path d="M139.851 9.97305C139.851 8.29508 139.851 7.19899 139.817 5.724H144.648L144.682 9.18143C145.846 6.64418 147.903 5.31128 151.394 5.31128C155.095 5.31128 157.044 6.4412 157.734 9.1476C158.897 6.61035 160.988 5.31128 164.446 5.31128C169.243 5.31128 171.022 7.22605 171.022 11.9893C171.022 13.4643 170.988 15.3114 170.988 18.3967V20.9001C170.988 22.5781 170.988 23.8772 171.022 25.731H165.921C165.954 24.2222 165.954 22.9908 165.954 21.0016V14.4927C165.954 10.8594 164.96 9.93922 162.152 9.93922C159.1 9.93922 157.937 10.8662 157.937 15.3858V20.9678C157.937 22.6458 157.937 23.8772 157.971 25.731H152.869C152.903 24.1884 152.903 22.9908 152.903 20.9678V14.4927C152.903 10.8594 151.908 9.93922 149.1 9.93922C146.049 9.93922 144.919 10.8662 144.919 15.3858V21.279C144.919 23.2006 144.919 24.1546 144.953 25.731H139.817C139.851 24.1207 139.851 23.0585 139.851 21.1099V9.97305Z" fill="#6D28D9"/>
<path d="M174.791 16.2384V15.2099C174.791 7.57112 177.531 5.31128 184.453 5.31128C191.374 5.31128 193.939 7.57112 193.939 15.2099V16.9556H179.926C180.129 20.8934 181.333 21.8541 184.622 21.8541C188.113 21.8541 188.938 20.9272 188.938 18.735L193.939 18.8703C193.939 24.1478 191.78 26.1302 184.588 26.1302C177.396 26.1302 174.791 23.8704 174.791 16.2316V16.2384ZM179.967 13.5996H188.702C188.566 9.93245 187.606 9.11377 184.453 9.11377C181.3 9.11377 180.204 9.93245 179.967 13.5996Z" fill="#6D28D9"/>
<path d="M0 0H12.2059C14.6145 0 16.5564 0.324768 18.0381 0.981069C19.5199 1.6306 20.7445 2.57108 21.7121 3.78896C22.6796 5.00683 23.3833 6.42769 23.8163 8.05153C24.2493 9.6686 24.4658 11.3872 24.4658 13.2005C24.4658 16.0422 24.1411 18.2411 23.4983 19.8108C22.8488 21.3738 21.9556 22.6864 20.8054 23.7486C19.6552 24.8041 18.4238 25.5078 17.1044 25.8596C15.3047 26.34 13.6741 26.5836 12.2059 26.5836H0V0Z" fill="#6D28D9"/>
<path d="M8.94954 15.1935C8.95767 14.2968 8.23729 13.5632 7.3405 13.555C6.44372 13.5469 5.71013 14.2673 5.70199 15.1641C5.69385 16.0609 6.41424 16.7944 7.31103 16.8026C8.20781 16.8107 8.9414 16.0903 8.94954 15.1935Z" fill="white"/>
<path d="M8.88777 21.2158C8.89591 20.319 8.17552 19.5854 7.27873 19.5773C6.38195 19.5691 5.64836 20.2895 5.64023 21.1863C5.63209 22.0831 6.35248 22.8167 7.24926 22.8248C8.14604 22.8329 8.87963 22.1125 8.88777 21.2158Z" fill="white"/>
<path d="M11.8581 18.2868C11.8662 17.39 11.1459 16.6564 10.2491 16.6483C9.35229 16.6402 8.6187 17.3605 8.61056 18.2573C8.60242 19.1541 9.32281 19.8877 10.2196 19.8958C11.1164 19.904 11.85 19.1836 11.8581 18.2868Z" fill="white"/>
<path d="M4.04596 19.8785C4.94278 19.8785 5.6698 19.1515 5.6698 18.2547C5.6698 17.3579 4.94278 16.6309 4.04596 16.6309C3.14914 16.6309 2.42212 17.3579 2.42212 18.2547C2.42212 19.1515 3.14914 19.8785 4.04596 19.8785Z" fill="white"/>
<path d="M15.0476 21.103H8.55228C8.43644 21.103 8.34253 21.1969 8.34253 21.3128V21.3737C8.34253 21.4895 8.43644 21.5834 8.55228 21.5834H15.0476C15.1635 21.5834 15.2574 21.4895 15.2574 21.3737V21.3128C15.2574 21.1969 15.1635 21.103 15.0476 21.103Z" fill="white"/>
<mask id="mask0_638_559" style="mask-type:luminance" maskUnits="userSpaceOnUse" x="0" y="0" width="25" height="27">
<path d="M0 0H12.2059C14.6145 0 16.5564 0.324768 18.0381 0.981069C19.5199 1.6306 20.7445 2.57108 21.7121 3.78896C22.6796 5.00683 23.3833 6.42769 23.8163 8.05153C24.2493 9.6686 24.4658 11.3872 24.4658 13.2005C24.4658 16.0422 24.1411 18.2411 23.4983 19.8108C22.8488 21.3738 21.9556 22.6864 20.8054 23.7486C19.6552 24.8041 18.4238 25.5078 17.1044 25.8596C15.3047 26.34 13.6741 26.5836 12.2059 26.5836H0V0Z" fill="white"/>
</mask>
<g mask="url(#mask0_638_559)">
<path d="M25.3184 18.0312H10.2302V18.5522H25.3184V18.0312Z" fill="white"/>
</g>
</svg>
